<svg xmlns="http://www.w3.org/2000/svg" viewBox="0 0 180 160" role="img" aria-labelledby="title desc">
  <!--
    Sovereign Collab
    Represents secure cross-organization collaboration, shared document work, national boundaries, and governed cooperation.
    Designed for Circularo Sovereign Trust Platform slides using the approved purple/navy enterprise style.
  -->
  <title id="title">Sovereign Collab</title>
  <desc id="desc">Three collaborating users under a governed national-boundary globe.</desc>
  <defs>
    <linearGradient id="purple-fill" x1="0" x2="1" y1="0" y2="1">
      <stop offset="0%" stop-color="#7a18ff" />
      <stop offset="48%" stop-color="#7000ff" />
      <stop offset="100%" stop-color="#1d0090" />
    </linearGradient>
    <filter id="icon-shadow" x="-20%" y="-20%" width="140%" height="150%">
      <feDropShadow dx="0" dy="9" stdDeviation="6" flood-color="#1d0090" flood-opacity="0.16" />
    </filter>
  </defs>
  <g filter="url(#icon-shadow)">
    <path d="M20 60c16-43 124-43 140 0" fill="none" stroke="#d8ccff" stroke-width="4" />
    <path d="M48 30c23 20 23 61 0 82M132 30c-23 20-23 61 0 82M90 20v92" fill="none" stroke="#d8ccff" stroke-width="4" />
    <path d="M14 52c16-40 136-40 152 0" fill="none" stroke="#7000ff" stroke-width="3" stroke-dasharray="2 9" />
    <circle cx="14" cy="52" r="6" fill="#7000ff" />
    <circle cx="90" cy="18" r="6" fill="#7000ff" />
    <circle cx="166" cy="52" r="6" fill="#7000ff" />
    <circle cx="90" cy="78" r="20" fill="url(#purple-fill)" stroke="#1d0090" stroke-width="4" />
    <path d="M56 152v-22c0-22 68-22 68 0v22z" fill="url(#purple-fill)" stroke="#1d0090" stroke-width="4" />
    <circle cx="30" cy="86" r="15" fill="url(#purple-fill)" stroke="#1d0090" stroke-width="4" />
    <path d="M3 145v-17c0-18 54-18 54 0v17z" fill="url(#purple-fill)" stroke="#1d0090" stroke-width="4" />
    <circle cx="150" cy="86" r="15" fill="url(#purple-fill)" stroke="#1d0090" stroke-width="4" />
    <path d="M123 145v-17c0-18 54-18 54 0v17z" fill="url(#purple-fill)" stroke="#1d0090" stroke-width="4" />
  </g>
</svg>
